# AST/ASF file generated using VICON BodyLanguage
# -----------------------------------------------
:version 1.10
:name VICON
:units
  mass 1.0
  length 0.45
  angle deg
:documentation
   .ast/.asf automatically generated from VICON data using
   VICON BodyBuilder and BodyLanguage model FoxedUp or BRILLIANT.MOD
:root
   order TX TY TZ RX RY RZ
   axis XYZ
   position 0 0 0  
   orientation 0 0 0 
:bonedata
  begin
     id 1 
     name lhipjoint
     direction 0.578396 -0.714046 0.394458 
     length 2.21935 
     axis 0 0 0  XYZ
  end
  begin
     id 2 
     name lfemur
     direction 0.34202 -0.939693 0  
     length 6.39105  
     axis 0 0 20  XYZ
    dof rx ry rz
    limits (-160.0 20.0)
           (-70.0 70.0)
           (-60.0 70.0)
  end
  begin
     id 3 
     name ltibia
     direction 0.34202 -0.939693 0   
     length 6.99037   
     axis 0 0 20   XYZ
    dof rx
    limits (-10.0 170.0)
  end
  begin
     id 4 
     name lfoot
     direction 0.0582372 -0.160005 0.985397   
     length 2.06111   
     axis -90 7.62852e-016 20   XYZ
    dof rx rz
    limits (-45.0 90.0)
           (-70.0 20.0)
  end
  begin
     id 5 
     name ltoes
     direction 1.53556e-011 -4.21875e-011 1   
     length 1.04074   
     axis -90 7.62852e-016 20   XYZ
    dof rx
    limits (-90.0 20.0)
  end
  begin
     id 6 
     name rhipjoint
     direction -0.558179 -0.726269 0.40121   
     length 2.182  
     axis 0 0 0  XYZ 
  end
  begin
     id 7 
     name rfemur
     direction -0.34202 -0.939693 0   
     length 6.51172   
     axis 0 0 -20   XYZ
    dof rx ry rz
    limits (-160.0 20.0)
           (-70.0 70.0)
           (-70.0 60.0)
  end
  begin
     id 8 
     name rtibia
     direction -0.34202 -0.939693 0   
     length 7.02607   
     axis 0 0 -20   XYZ
    dof rx
    limits (-10.0 170.0)
 end
 begin
     id 9 
     name rfoot
     direction -0.0788856 -0.216737 0.973038   
     length 1.96734  
     axis -90 -7.62852e-016 -20   XYZ
    dof rx rz
    limits (-45.0 90.0)
           (-20.0 70.0)
  end
  begin
     id 10 
     name rtoes
     direction -1.53567e-011 -4.21783e-011 1   
     length 0.990825   
     axis -90 -7.62852e-016 -20   XYZ
    dof rx
    limits (-90.0 20.0)
  end
  begin
     id 11 
     name lowerback
     direction 0.00668177 0.999323 -0.0361741   
     length 1.7655   
     axis 0 0 0   XYZ
    dof rx ry rz
    limits (-20.0 45.0)
           (-30.0 30.0)
           (-30.0 30.0)
  end
  begin
     id 12 
     name upperback
     direction -0.00222086 0.99851 0.0545167   
     length 1.74912   
     axis 0 0 0   XYZ
    dof rx ry rz
    limits (-20.0 45.0)
           (-30.0 30.0)
           (-30.0 30.0)
  end
  begin
     id 13 
     name thorax
     direction -0.00733971 0.997496 0.0703443   
     length 1.75715   
     axis 0 0 0   XYZ
    dof rx ry rz
    limits (-20.0 45.0)
           (-30.0 30.0)
           (-30.0 30.0)
  end
  begin
     id 14 
     name lowerneck
     direction 0.0279797 0.994795 0.0979765   
     length 1.46939   
     axis 0 0 0   XYZ
    dof rx ry rz
    limits (-20.0 45.0)
           (-30.0 30.0)
           (-30.0 30.0)
  end
  begin
     id 15 
     name upperneck
     direction 0.00339187 0.976776 -0.214238   
     length 1.48018   
     axis 0 0 0   XYZ
    dof rx ry rz
    limits (-20.0 45.0)
           (-30.0 30.0)
           (-30.0 30.0)
  end
  begin
     id 16
     name head
     direction -0.00263506 0.996603 -0.0823096  
     length 1.4976  
     axis 0 0 0   XYZ
    dof rx ry rz
    limits (-20.0 45.0)
           (-30.0 30.0)
           (-30.0 30.0)
  end
  begin
     id 17 
     name lclavicle
     direction 0.894044 0.44508 -0.0508781  
     length 3.03024  
     axis 0 0 0   XYZ
    dof ry rz
    limits (-20.0 10.0)
           (0.0 20.0)
  end
  begin
     id 18 
     name lhumerus
     direction 1 -4.48961e-011 -2.39475e-018   
     length 4.4661   
     axis 180 -30 -90   XYZ
    dof rx ry rz
    limits (-60.0 90.0)
           (-90.0 90.0)
           (-90.0 90.0)
  end
  begin
     id 19
     name lradius
     direction 1 -4.48961e-011 9.29328e-028   
     length 3.41414   
     axis 180 -30 -90   XYZ
    dof rx
    limits (-10.0 170.0)
  end
  begin
     id 20
     name lwrist
     direction 1 -4.48985e-011 1.53461e-026   
     length 1.70707   
     axis -1.09697e-014 90 90   XYZ
    dof ry
    limits (-180.0 0.0)
 end
  begin
     id 21 
     name lhand
     direction 1 -4.48966e-011 3.06923e-026   
     length 0.328298   
     axis -1.95843e-014 90 90   XYZ
    dof rx rz
    limits (-90.0 90.0)
           (-45.0 45.0)
  end
  begin
     id 22 
     name lfingers
     direction 1 -4.48893e-011 6.13845e-026   
     length 0.264682   
     axis -3.91686e-014 90 90   XYZ
    dof rx
    limits (0.0 90.0)
  end
  begin
     id 23
     name lthumb
     direction 0.707107 -6.34876e-011 0.707107   
     length 0.380032   
     axis -90 45 2.85299e-015   XYZ
    dof rx rz
    limits (-45.0 45.0)
           (-45.0 45.0)
  end
  begin
     id 24 
     name rclavicle
     direction -0.936955 0.347862 -0.0332887   
     length 3.26927  
     axis 0 0 0   XYZ 
    dof ry rz
    limits (-10.0 20.0)
           (-20.0 0.0)
  end
  begin
     id 25 
     name rhumerus
     direction -1 -4.4896e-011 1.78637e-018  
     length 4.40431   
     axis 180 30 90   XYZ
    dof rx ry rz
    limits (-90.0 60.0)
           (-90.0 90.0)
           (-90.0 90.0)
  end
  begin
     id 26 
     name rradius
     direction -1 -4.48955e-011 9.34036e-027   
     length 3.04688   
     axis 180 30 90   XYZ
    dof rx
    limits (-10.0 170.0)
  end
  begin
     id 27 
     name rwrist
     direction -1 -4.49011e-011 1.53461e-026   
     length 1.52344   
     axis -1.09697e-014 -90 -90   XYZ
    dof ry
    limits (-180.0 0.0)
  end
  begin
     id 28
     name rhand
     direction -1 -4.48834e-011 3.06923e-026   
     length 0.500489   
     axis -1.95843e-014 -90 -90   XYZ
    dof rx rz
    limits (-90.0 90.0)
           (-45.0 45.0)
  end
  begin
     id 29
     name rfingers
     direction -1 -4.48967e-011 6.13845e-026   
     length 0.403507   
     axis -3.91686e-014 -90 -90   XYZ
    dof rx
    limits (0.0 90.0)
  end
  begin
     id 30
     name rthumb
     direction -0.707107 -6.34826e-011 0.707107   
     length 0.579358   
     axis -90 -45 -2.85299e-015   XYZ
    dof rx rz
    limits (-45.0 45.0)
           (-45.0 45.0)
  end
:hierarchy
  begin
    root lhipjoint rhipjoint lowerback
    lhipjoint lfemur
    lfemur ltibia
    ltibia lfoot
    lfoot ltoes
    rhipjoint rfemur
    rfemur rtibia
    rtibia rfoot
    rfoot rtoes
    lowerback upperback
    upperback thorax
    thorax lowerneck lclavicle rclavicle
    lowerneck upperneck
    upperneck head
    lclavicle lhumerus
    lhumerus lradius
    lradius lwrist
    lwrist lhand lthumb
    lhand lfingers
    rclavicle rhumerus
    rhumerus rradius
    rradius rwrist
    rwrist rhand rthumb
    rhand rfingers
  end

#!OML:ASF H:\IndianDance\Patient Classification 1\Patient 1\Session 1\dancer.ASF
:FULLY-SPECIFIED
:DEGREES
381
root 8.08293 15.8422 3.36331 13.6203 -48.8693 -15.9891
lowerback 14.6673 4.45868 -4.04954
upperback 3.84938 5.02257 -2.28032
thorax -4.25498 2.43944 -1.02873
lowerneck -15.284 -7.42005 -4.47097
upperneck 28.3934 -14.6936 14.8667
head 13.7859 -5.32771 4.07692
rclavicle 1.17681e-013 -2.38542e-014
rhumerus -54.4193 -14.218 -62.9155
rradius 55.9565
rwrist -11.7669
rhand -8.24996 13.444
rfingers 7.12502
rthumb 17.6683 -15.7733
lclavicle 1.17681e-013 -2.38542e-014
lhumerus -32.5691 -0.236266 84.0465
lradius 95.4079
lwrist 19.5628
lhand -36.5735 31.933
lfingers 7.12502
lthumb -9.6632 61.6913
rfemur -58.4945 0.263242 10.3404
rtibia 113.023
rfoot 48.2844 15.5993
rtoes 33.2874
lfemur -14.947 2.00548 -12.0057
ltibia 28.0292
lfoot -8.52278 -10.5346
ltoes 12.2096
382
root 8.10973 15.8384 3.37114 13.6132 -49.9206 -16.3236
lowerback 15.0299 4.79564 -3.97825
upperback 3.97421 5.44003 -2.38129
thorax -4.30787 2.63777 -1.27555
lowerneck -15.4005 -7.35627 -4.39733
upperneck 28.3905 -14.5971 14.813
head 13.785 -5.27684 4.05723
rclavicle -6.52014e-014 4.77083e-015
rhumerus -54.1756 -14.2506 -62.8062
rradius 56.3161
rwrist -11.9889
rhand -8.41736 13.5159
rfingers 7.12502
rthumb 17.5072 -15.7158
lclavicle -6.52014e-014 4.77083e-015
lhumerus -32.8412 1.32991 84.5597
lradius 95.4531
lwrist 19.0675
lhand -36.6801 31.8228
lfingers 7.12502
lthumb -9.76605 61.5764
rfemur -59.2124 -1.08716 10.7591
rtibia 113.801
rfoot 48.2512 15.4524
rtoes 32.993
lfemur -14.4058 2.67997 -12.0477
ltibia 27.9506
lfoot -8.63355 -10.1678
ltoes 11.762
383
root 8.13624 15.8349 3.37929 13.656 -50.9181 -16.6982
lowerback 15.3725 5.10607 -3.87799
upperback 4.0924 5.82971 -2.45783
thorax -4.35277 2.8225 -1.5092
lowerneck -15.5064 -7.29707 -4.33561
upperneck 28.3853 -14.5032 14.7567
head 13.7819 -5.22938 4.03833
rclavicle -6.91771e-014 3.49861e-014
rhumerus -53.914 -14.3154 -62.6607
rradius 56.6856
rwrist -12.2169
rhand -8.58508 13.5843
rfingers 7.12502
rthumb 17.3458 -15.6617
lclavicle -6.91771e-014 3.49861e-014
lhumerus -33.1222 2.85965 85.0496
lradius 95.4639
lwrist 18.5214
lhand -36.8303 31.7182
lfingers 7.12502
lthumb -9.91096 61.4649
rfemur -59.9348 -2.4745 11.2255
rtibia 114.59
rfoot 48.2355 15.2652
rtoes 32.7598
lfemur -13.9009 3.33775 -12.055
ltibia 27.8828
lfoot -8.74229 -9.81437
ltoes 11.3243
384
root 8.16224 15.832 3.38823 13.7549 -51.8733 -17.1166
lowerback 15.6874 5.39279 -3.74846
upperback 4.20342 6.1962 -2.51384
thorax -4.386 2.99602 -1.73332
lowerneck -15.6009 -7.24093 -4.28086
upperneck 28.3796 -14.4097 14.6936
head 13.776 -5.1844 4.01809
rclavicle -3.26007e-014 5.24792e-014
rhumerus -53.6418 -14.4072 -62.4923
rradius 57.0788
rwrist -12.4545
rhand -8.77039 13.6393
rfingers 7.12502
rthumb 17.1675 -15.6223
lclavicle -3.26007e-014 5.24792e-014
lhumerus -33.4166 4.3201 85.5035
lradius 95.4441
lwrist 17.9658
lhand -36.9983 31.6129
lfingers 7.12502
lthumb -10.073 61.3518
rfemur -60.6634 -3.88236 11.74
rtibia 115.384
rfoot 48.1886 15.0343
rtoes 32.5881
lfemur -13.424 3.98077 -12.0321
ltibia 27.8176
lfoot -8.85139 -9.4606
ltoes 10.8923
385
root 8.18779 15.8293 3.39763 13.8772 -52.7765 -17.5327
lowerback 15.9761 5.65184 -3.61302
upperback 4.30801 6.53028 -2.55702
thorax -4.40961 3.15394 -1.9407
lowerneck -15.6877 -7.18763 -4.23436
upperneck 28.3758 -14.3164 14.6235
head 13.7692 -5.14157 3.99674
rclavicle -8.42847e-014 7.95139e-015
rhumerus -53.355 -14.5181 -62.3121
rradius 57.5002
rwrist -12.7182
rhand -8.98465 13.6742
rfingers 7.12502
rthumb 16.9612 -15.6053
lclavicle -8.42847e-014 7.95139e-015
lhumerus -33.7194 5.68434 85.9132
lradius 95.3942
lwrist 17.4363
lhand -37.2183 31.5191
lfingers 7.12502
lthumb -10.2852 61.2476
rfemur -61.4004 -5.34712 12.2779
rtibia 116.184
rfoot 48.0682 14.8272
rtoes 32.4115
lfemur -12.9771 4.59321 -12.0114
ltibia 27.7435
lfoot -8.95475 -9.10278
ltoes 10.4668
